{"asset":{"version":"2.0","generator":"THREE.GLTFExporter"},"scenes":[{"nodes":[0],"name":"AuxScene"}],"scene":0,"nodes":[{"mesh":0}],"bufferViews":[{"buffer":0,"byteOffset":0,"byteLength":10452,"target":34962,"byteStride":12},{"buffer":0,"byteOffset":10452,"byteLength":10452,"target":34962,"byteStride":12},{"buffer":0,"byteOffset":20904,"byteLength":10452,"target":34962,"byteStride":12},{"buffer":0,"byteOffset":31356,"byteLength":6968,"target":34962,"byteStride":8},{"buffer":0,"byteOffset":38324,"byteLength":4848,"target":34963}],"buffers":[{"byteLength":43172,"uri":"data:application/octet-stream;base64,"}],"accessors":[{"bufferView":0,"componentType":5126,"count":871,"max":[26.149999618530273,52.31050109863281,23.699199676513672],"min":[-26.149999618530273,5.092700234854419e-7,-23.699199676513672],"type":"VEC3"},{"bufferView":1,"componentType":5126,"count":871,"max":[1,1,1],"min":[-1,-1,-1],"type":"VEC3"},{"bufferView":2,"componentType":5126,"count":871,"max":[1,1,1],"min":[1,1,1],"type":"VEC3"},{"bufferView":3,"componentType":5126,"count":871,"max":[0.9954419732093811,0.9954079985618591],"min":[0.004557999782264233,0.004592000041157007],"type":"VEC2"},{"bufferView":4,"componentType":5123,"count":2424,"max":[870],"min":[0],"type":"SCALAR"}],"materials":[{"pbrMetallicRoughness":{"metallicFactor":0,"roughnessFactor":0.9},"name":"bake_mat.001"}],"meshes":[{"primitives":[{"mode":4,"attributes":{"POSITION":0,"NORMAL":1,"COLOR_0":2,"TEXCOORD_0":3},"indices":4,"material":0}]}]}