{"asset":{"version":"2.0","generator":"THREE.GLTFExporter"},"scenes":[{"nodes":[0],"name":"AuxScene"}],"scene":0,"nodes":[{"mesh":0}],"bufferViews":[{"buffer":0,"byteOffset":0,"byteLength":3936,"target":34962,"byteStride":12},{"buffer":0,"byteOffset":3936,"byteLength":3936,"target":34962,"byteStride":12},{"buffer":0,"byteOffset":7872,"byteLength":3936,"target":34962,"byteStride":12},{"buffer":0,"byteOffset":11808,"byteLength":2624,"target":34962,"byteStride":8},{"buffer":0,"byteOffset":14432,"byteLength":696,"target":34963},{"buffer":0,"byteOffset":15128,"byteLength":2784,"target":34963}],"buffers":[{"byteLength":17912,"uri":"data:application/octet-stream;base64,"}],"accessors":[{"bufferView":0,"componentType":5126,"count":328,"max":[94.3396224975586,79.12956237792969,51.68458938598633],"min":[-94.3396224975586,-0.35544654726982117,-53.183963775634766],"type":"VEC3"},{"bufferView":1,"componentType":5126,"count":328,"max":[0.9763789772987366,0.9074370265007019,0.9074370265007019],"min":[-0.9732959866523743,-0.9074370265007019,-0.9014859795570374],"type":"VEC3"},{"bufferView":2,"componentType":5126,"count":328,"max":[1,1,1],"min":[1,1,1],"type":"VEC3"},{"bufferView":3,"componentType":5126,"count":328,"max":[0.9859650135040283,0.9683989882469177],"min":[0.014031000435352325,0.32701998949050903],"type":"VEC2"},{"bufferView":4,"componentType":5123,"count":348,"max":[71],"min":[0],"type":"SCALAR"},{"bufferView":5,"componentType":5123,"count":1392,"max":[327],"min":[72],"type":"SCALAR"}],"materials":[{"pbrMetallicRoughness":{"metallicFactor":0,"roughnessFactor":0.9},"name":"medwood"},{"pbrMetallicRoughness":{"metallicFactor":0,"roughnessFactor":0.9},"name":"metal"}],"meshes":[{"primitives":[{"mode":4,"attributes":{"POSITION":0,"NORMAL":1,"COLOR_0":2,"TEXCOORD_0":3},"indices":4,"material":0},{"mode":4,"attributes":{"POSITION":0,"NORMAL":1,"COLOR_0":2,"TEXCOORD_0":3},"indices":5,"material":1}]}]}