{"asset":{"version":"2.0","generator":"THREE.GLTFExporter"},"scenes":[{"nodes":[0],"name":"AuxScene"}],"scene":0,"nodes":[{"mesh":0}],"bufferViews":[{"buffer":0,"byteOffset":0,"byteLength":17760,"target":34962,"byteStride":12},{"buffer":0,"byteOffset":17760,"byteLength":17760,"target":34962,"byteStride":12},{"buffer":0,"byteOffset":35520,"byteLength":17760,"target":34962,"byteStride":12},{"buffer":0,"byteOffset":53280,"byteLength":11840,"target":34962,"byteStride":8},{"buffer":0,"byteOffset":65120,"byteLength":9384,"target":34963}],"buffers":[{"byteLength":74504,"uri":"data:application/octet-stream;base64,"}],"accessors":[{"bufferView":0,"componentType":5126,"count":1480,"max":[30.47879981994629,62.31880187988281,22.856700897216797],"min":[-30.47879981994629,0.0000011571800087040174,-22.856800079345703],"type":"VEC3"},{"bufferView":1,"componentType":5126,"count":1480,"max":[1,1,1],"min":[-1,-1,-1],"type":"VEC3"},{"bufferView":2,"componentType":5126,"count":1480,"max":[1,1,1],"min":[1,1,1],"type":"VEC3"},{"bufferView":3,"componentType":5126,"count":1480,"max":[0.9951760172843933,0.9952459931373596],"min":[0.00482399994507432,0.004753999877721071],"type":"VEC2"},{"bufferView":4,"componentType":5123,"count":4692,"max":[1479],"min":[0],"type":"SCALAR"}],"materials":[{"pbrMetallicRoughness":{"metallicFactor":0,"roughnessFactor":0.9},"name":"bake_mat"}],"meshes":[{"primitives":[{"mode":4,"attributes":{"POSITION":0,"NORMAL":1,"COLOR_0":2,"TEXCOORD_0":3},"indices":4,"material":0}]}]}