{"asset":{"version":"2.0","generator":"THREE.GLTFExporter"},"scenes":[{"nodes":[0],"name":"AuxScene"}],"scene":0,"nodes":[{"mesh":0}],"bufferViews":[{"buffer":0,"byteOffset":0,"byteLength":240,"target":34962,"byteStride":12},{"buffer":0,"byteOffset":240,"byteLength":240,"target":34962,"byteStride":12},{"buffer":0,"byteOffset":480,"byteLength":240,"target":34962,"byteStride":12},{"buffer":0,"byteOffset":720,"byteLength":160,"target":34962,"byteStride":8},{"buffer":0,"byteOffset":880,"byteLength":72,"target":34963}],"buffers":[{"byteLength":952,"uri":"data:application/octet-stream;base64,"}],"accessors":[{"bufferView":0,"componentType":5126,"count":20,"max":[76.19999694824219,0.25000500679016113,121.91999816894531],"min":[-76.19999694824219,-0.25000500679016113,-121.91999816894531],"type":"VEC3"},{"bufferView":1,"componentType":5126,"count":20,"max":[0.5773490071296692,0.5773490071296692,0.5773490071296692],"min":[-0.5773490071296692,-0.5773490071296692,-0.5773490071296692],"type":"VEC3"},{"bufferView":2,"componentType":5126,"count":20,"max":[1,1,1],"min":[1,1,1],"type":"VEC3"},{"bufferView":3,"componentType":5126,"count":20,"max":[1,1],"min":[-0.0000019999999949504854,-0.0000019999999949504854],"type":"VEC2"},{"bufferView":4,"componentType":5123,"count":36,"max":[19],"min":[0],"type":"SCALAR"}],"materials":[{"pbrMetallicRoughness":{"metallicFactor":0,"roughnessFactor":0.9},"name":"bake_mat.013"}],"meshes":[{"primitives":[{"mode":4,"attributes":{"POSITION":0,"NORMAL":1,"COLOR_0":2,"TEXCOORD_0":3},"indices":4,"material":0}]}]}