{"asset":{"version":"2.0","generator":"THREE.GLTFExporter"},"scenes":[{"nodes":[0],"name":"AuxScene"}],"scene":0,"nodes":[{"mesh":0}],"bufferViews":[{"buffer":0,"byteOffset":0,"byteLength":45636,"target":34962,"byteStride":12},{"buffer":0,"byteOffset":45636,"byteLength":45636,"target":34962,"byteStride":12},{"buffer":0,"byteOffset":91272,"byteLength":45636,"target":34962,"byteStride":12},{"buffer":0,"byteOffset":136908,"byteLength":30424,"target":34962,"byteStride":8},{"buffer":0,"byteOffset":167332,"byteLength":30708,"target":34963}],"buffers":[{"byteLength":198040,"uri":"data:application/octet-stream;base64,"}],"accessors":[{"bufferView":0,"componentType":5126,"count":3803,"max":[76.19999694824219,135.77999877929688,25.399999618530273],"min":[-76.19999694824219,0.000004912079930363689,-25.399999618530273],"type":"VEC3"},{"bufferView":1,"componentType":5126,"count":3803,"max":[1,1,1],"min":[-1,-1,-1],"type":"VEC3"},{"bufferView":2,"componentType":5126,"count":3803,"max":[1,1,1],"min":[1,1,1],"type":"VEC3"},{"bufferView":3,"componentType":5126,"count":3803,"max":[0.9977080225944519,0.9976840019226074],"min":[0.00229199999012053,0.0023159999400377274],"type":"VEC2"},{"bufferView":4,"componentType":5123,"count":15354,"max":[3802],"min":[0],"type":"SCALAR"}],"materials":[{"pbrMetallicRoughness":{"metallicFactor":0,"roughnessFactor":0.9},"name":"bake_mat"}],"meshes":[{"primitives":[{"mode":4,"attributes":{"POSITION":0,"NORMAL":1,"COLOR_0":2,"TEXCOORD_0":3},"indices":4,"material":0}]}]}