{"asset":{"version":"2.0","generator":"THREE.GLTFExporter"},"scenes":[{"nodes":[0],"name":"AuxScene"}],"scene":0,"nodes":[{"mesh":0}],"bufferViews":[{"buffer":0,"byteOffset":0,"byteLength":5796,"target":34962,"byteStride":12},{"buffer":0,"byteOffset":5796,"byteLength":5796,"target":34962,"byteStride":12},{"buffer":0,"byteOffset":11592,"byteLength":5796,"target":34962,"byteStride":12},{"buffer":0,"byteOffset":17388,"byteLength":3864,"target":34962,"byteStride":8},{"buffer":0,"byteOffset":21252,"byteLength":2172,"target":34963}],"buffers":[{"byteLength":23424,"uri":"data:application/octet-stream;base64,"}],"accessors":[{"bufferView":0,"componentType":5126,"count":483,"max":[36.13199996948242,184.35299682617188,19.093399047851562],"min":[-36.13199996948242,-6.823830176472256e-7,-19.093399047851562],"type":"VEC3"},{"bufferView":1,"componentType":5126,"count":483,"max":[0.7135530114173889,0.707082986831665,1],"min":[-0.7135530114173889,-0.707082986831665,-1],"type":"VEC3"},{"bufferView":2,"componentType":5126,"count":483,"max":[1,1,1],"min":[1,1,1],"type":"VEC3"},{"bufferView":3,"componentType":5126,"count":483,"max":[0.9972519874572754,0.9972919821739197],"min":[0.002747999969869852,0.002707999898120761],"type":"VEC2"},{"bufferView":4,"componentType":5123,"count":1086,"max":[482],"min":[0],"type":"SCALAR"}],"materials":[{"pbrMetallicRoughness":{"metallicFactor":0,"roughnessFactor":0.9},"name":"bake_mat"}],"meshes":[{"primitives":[{"mode":4,"attributes":{"POSITION":0,"NORMAL":1,"COLOR_0":2,"TEXCOORD_0":3},"indices":4,"material":0}]}]}