{"asset":{"version":"2.0","generator":"THREE.GLTFExporter"},"scenes":[{"nodes":[0],"name":"AuxScene"}],"scene":0,"nodes":[{"mesh":0}],"bufferViews":[{"buffer":0,"byteOffset":0,"byteLength":36048,"target":34962,"byteStride":12},{"buffer":0,"byteOffset":36048,"byteLength":36048,"target":34962,"byteStride":12},{"buffer":0,"byteOffset":72096,"byteLength":36048,"target":34962,"byteStride":12},{"buffer":0,"byteOffset":108144,"byteLength":24032,"target":34962,"byteStride":8},{"buffer":0,"byteOffset":132176,"byteLength":25932,"target":34963}],"buffers":[{"byteLength":158108,"uri":"data:application/octet-stream;base64,"}],"accessors":[{"bufferView":0,"componentType":5126,"count":3004,"max":[76.37950134277344,160.3939971923828,24.587099075317383],"min":[-76.37950134277344,0.000001074729993888468,-24.587099075317383],"type":"VEC3"},{"bufferView":1,"componentType":5126,"count":3004,"max":[1,1,1],"min":[-1,-1,-1],"type":"VEC3"},{"bufferView":2,"componentType":5126,"count":3004,"max":[1,1,1],"min":[1,1,1],"type":"VEC3"},{"bufferView":3,"componentType":5126,"count":3004,"max":[0.9977669715881348,0.9977660179138184],"min":[0.0022330000065267086,0.002234000014141202],"type":"VEC2"},{"bufferView":4,"componentType":5123,"count":12966,"max":[3003],"min":[0],"type":"SCALAR"}],"materials":[{"pbrMetallicRoughness":{"metallicFactor":0,"roughnessFactor":0.9},"name":"bake_mat"}],"meshes":[{"primitives":[{"mode":4,"attributes":{"POSITION":0,"NORMAL":1,"COLOR_0":2,"TEXCOORD_0":3},"indices":4,"material":0}]}]}