{"asset":{"version":"2.0","generator":"THREE.GLTFExporter"},"scenes":[{"nodes":[0],"name":"AuxScene"}],"scene":0,"nodes":[{"mesh":0}],"bufferViews":[{"buffer":0,"byteOffset":0,"byteLength":93576,"target":34962,"byteStride":12},{"buffer":0,"byteOffset":93576,"byteLength":93576,"target":34962,"byteStride":12},{"buffer":0,"byteOffset":187152,"byteLength":93576,"target":34962,"byteStride":12},{"buffer":0,"byteOffset":280728,"byteLength":62384,"target":34962,"byteStride":8},{"buffer":0,"byteOffset":343112,"byteLength":75888,"target":34963}],"buffers":[{"byteLength":419000,"uri":"data:application/octet-stream;base64,"}],"accessors":[{"bufferView":0,"componentType":5126,"count":7798,"max":[108.5999984741211,85.09020233154297,47.20920181274414],"min":[-108.5999984741211,0.000001523579953754961,-47.20920181274414],"type":"VEC3"},{"bufferView":1,"componentType":5126,"count":7798,"max":[0.9987789988517761,0.9991459846496582,0.9989929795265198],"min":[-0.9987789988517761,-0.9995419979095459,-0.9989010095596313],"type":"VEC3"},{"bufferView":2,"componentType":5126,"count":7798,"max":[1,1,1],"min":[1,1,1],"type":"VEC3"},{"bufferView":3,"componentType":5126,"count":7798,"max":[0.9979609847068787,0.9979400038719177],"min":[0.0020389999262988567,0.0020600000862032175],"type":"VEC2"},{"bufferView":4,"componentType":5123,"count":37944,"max":[7797],"min":[0],"type":"SCALAR"}],"materials":[{"pbrMetallicRoughness":{"metallicFactor":0,"roughnessFactor":0.9},"name":"bake_mat"}],"meshes":[{"primitives":[{"mode":4,"attributes":{"POSITION":0,"NORMAL":1,"COLOR_0":2,"TEXCOORD_0":3},"indices":4,"material":0}]}]}