{"asset":{"version":"2.0","generator":"THREE.GLTFExporter"},"scenes":[{"nodes":[0],"name":"AuxScene"}],"scene":0,"nodes":[{"mesh":0}],"bufferViews":[{"buffer":0,"byteOffset":0,"byteLength":3648,"target":34962,"byteStride":12},{"buffer":0,"byteOffset":3648,"byteLength":3648,"target":34962,"byteStride":12},{"buffer":0,"byteOffset":7296,"byteLength":3648,"target":34962,"byteStride":12},{"buffer":0,"byteOffset":10944,"byteLength":2432,"target":34962,"byteStride":8},{"buffer":0,"byteOffset":13376,"byteLength":1320,"target":34963}],"buffers":[{"byteLength":14696,"uri":"data:application/octet-stream;base64,"}],"accessors":[{"bufferView":0,"componentType":5126,"count":304,"max":[53.04209899902344,76.15789794921875,52.75149917602539],"min":[-53.04209899902344,-0.0000017918499679581146,-52.75149917602539],"type":"VEC3"},{"bufferView":1,"componentType":5126,"count":304,"max":[0.9971309900283813,0.7765740156173706,0.9955139756202698],"min":[-0.9971309900283813,-0.7765740156173706,-0.9955139756202698],"type":"VEC3"},{"bufferView":2,"componentType":5126,"count":304,"max":[1,1,1],"min":[1,1,1],"type":"VEC3"},{"bufferView":3,"componentType":5126,"count":304,"max":[0.9958059787750244,0.9952319860458374],"min":[0.00419399980455637,0.004767999984323978],"type":"VEC2"},{"bufferView":4,"componentType":5123,"count":660,"max":[303],"min":[0],"type":"SCALAR"}],"materials":[{"pbrMetallicRoughness":{"metallicFactor":0,"roughnessFactor":0.9},"name":"bake_mat"}],"meshes":[{"primitives":[{"mode":4,"attributes":{"POSITION":0,"NORMAL":1,"COLOR_0":2,"TEXCOORD_0":3},"indices":4,"material":0}]}]}