{"asset":{"version":"2.0","generator":"THREE.GLTFExporter"},"scenes":[{"nodes":[0],"name":"AuxScene"}],"scene":0,"nodes":[{"mesh":0}],"bufferViews":[{"buffer":0,"byteOffset":0,"byteLength":6192,"target":34962,"byteStride":12},{"buffer":0,"byteOffset":6192,"byteLength":6192,"target":34962,"byteStride":12},{"buffer":0,"byteOffset":12384,"byteLength":6192,"target":34962,"byteStride":12},{"buffer":0,"byteOffset":18576,"byteLength":4128,"target":34962,"byteStride":8},{"buffer":0,"byteOffset":22704,"byteLength":2376,"target":34963}],"buffers":[{"byteLength":25080,"uri":"data:application/octet-stream;base64,"}],"accessors":[{"bufferView":0,"componentType":5126,"count":516,"max":[22.79490089416504,45.849700927734375,55.684898376464844],"min":[-22.79490089416504,-0.0000023771499400027096,-55.684898376464844],"type":"VEC3"},{"bufferView":1,"componentType":5126,"count":516,"max":[0.707082986831665,1,0.9045079946517944],"min":[-0.707082986831665,-0.9045079946517944,-0.9045079946517944],"type":"VEC3"},{"bufferView":2,"componentType":5126,"count":516,"max":[1,1,1],"min":[1,1,1],"type":"VEC3"},{"bufferView":3,"componentType":5126,"count":516,"max":[0.9960060119628906,0.9958900213241577],"min":[0.003994000144302845,0.004110000096261501],"type":"VEC2"},{"bufferView":4,"componentType":5123,"count":1188,"max":[515],"min":[0],"type":"SCALAR"}],"materials":[{"pbrMetallicRoughness":{"metallicFactor":0,"roughnessFactor":0.9},"name":"bake_mat"}],"meshes":[{"primitives":[{"mode":4,"attributes":{"POSITION":0,"NORMAL":1,"COLOR_0":2,"TEXCOORD_0":3},"indices":4,"material":0}]}]}