{"asset":{"version":"2.0","generator":"THREE.GLTFExporter"},"scenes":[{"nodes":[0],"name":"AuxScene"}],"scene":0,"nodes":[{"mesh":0}],"bufferViews":[{"buffer":0,"byteOffset":0,"byteLength":21792,"target":34962,"byteStride":12},{"buffer":0,"byteOffset":21792,"byteLength":21792,"target":34962,"byteStride":12},{"buffer":0,"byteOffset":43584,"byteLength":21792,"target":34962,"byteStride":12},{"buffer":0,"byteOffset":65376,"byteLength":14528,"target":34962,"byteStride":8},{"buffer":0,"byteOffset":79904,"byteLength":8316,"target":34963}],"buffers":[{"byteLength":88220,"uri":"data:application/octet-stream;base64,"}],"accessors":[{"bufferView":0,"componentType":5126,"count":1816,"max":[48.54999923706055,221.5800018310547,4.017789840698242],"min":[-48.54999923706055,-4.402139950343553e-7,-4.017789840698242],"type":"VEC3"},{"bufferView":1,"componentType":5126,"count":1816,"max":[1,1,1],"min":[-1,-1,-1],"type":"VEC3"},{"bufferView":2,"componentType":5126,"count":1816,"max":[1,1,1],"min":[1,1,1],"type":"VEC3"},{"bufferView":3,"componentType":5126,"count":1816,"max":[0.9979310035705566,0.9979540109634399],"min":[0.002068999921903014,0.0020469999872148037],"type":"VEC2"},{"bufferView":4,"componentType":5123,"count":4158,"max":[1815],"min":[0],"type":"SCALAR"}],"materials":[{"pbrMetallicRoughness":{"metallicFactor":0,"roughnessFactor":0.9},"name":"bake_mat"}],"meshes":[{"primitives":[{"mode":4,"attributes":{"POSITION":0,"NORMAL":1,"COLOR_0":2,"TEXCOORD_0":3},"indices":4,"material":0}]}]}