{"asset":{"version":"2.0","generator":"THREE.GLTFExporter"},"scenes":[{"nodes":[0],"name":"AuxScene"}],"scene":0,"nodes":[{"mesh":0}],"bufferViews":[{"buffer":0,"byteOffset":0,"byteLength":7212,"target":34962,"byteStride":12},{"buffer":0,"byteOffset":7212,"byteLength":7212,"target":34962,"byteStride":12},{"buffer":0,"byteOffset":14424,"byteLength":7212,"target":34962,"byteStride":12},{"buffer":0,"byteOffset":21636,"byteLength":4808,"target":34962,"byteStride":8},{"buffer":0,"byteOffset":26444,"byteLength":2760,"target":34963}],"buffers":[{"byteLength":29204,"uri":"data:application/octet-stream;base64,"}],"accessors":[{"bufferView":0,"componentType":5126,"count":601,"max":[50.44060134887695,115.56999969482422,-1.070229991326048e-13],"min":[7.219110021144254e-14,-0.000003721509983733995,-85.13829803466797],"type":"VEC3"},{"bufferView":1,"componentType":5126,"count":601,"max":[1,1,1],"min":[-1,-1,-1],"type":"VEC3"},{"bufferView":2,"componentType":5126,"count":601,"max":[1,1,1],"min":[1,1,1],"type":"VEC3"},{"bufferView":3,"componentType":5126,"count":601,"max":[3.4286699295043945,4.364409923553467],"min":[-2.4997398853302,-3.444269895553589],"type":"VEC2"},{"bufferView":4,"componentType":5123,"count":1380,"max":[600],"min":[0],"type":"SCALAR"}],"materials":[{"pbrMetallicRoughness":{"metallicFactor":0,"roughnessFactor":0.9},"name":"wood"}],"meshes":[{"primitives":[{"mode":4,"attributes":{"POSITION":0,"NORMAL":1,"COLOR_0":2,"TEXCOORD_0":3},"indices":4,"material":0}]}]}