{"asset":{"version":"2.0","generator":"THREE.GLTFExporter"},"scenes":[{"nodes":[0],"name":"AuxScene"}],"scene":0,"nodes":[{"mesh":0}],"bufferViews":[{"buffer":0,"byteOffset":0,"byteLength":28188,"target":34962,"byteStride":12},{"buffer":0,"byteOffset":28188,"byteLength":28188,"target":34962,"byteStride":12},{"buffer":0,"byteOffset":56376,"byteLength":28188,"target":34962,"byteStride":12},{"buffer":0,"byteOffset":84564,"byteLength":18792,"target":34962,"byteStride":8},{"buffer":0,"byteOffset":103356,"byteLength":236,"target":34963},{"buffer":0,"byteOffset":103592,"byteLength":4212,"target":34963},{"buffer":0,"byteOffset":107804,"byteLength":216,"target":34963},{"buffer":0,"byteOffset":108020,"byteLength":1104,"target":34963},{"buffer":0,"byteOffset":109124,"byteLength":7844,"target":34963},{"buffer":0,"byteOffset":116968,"byteLength":236,"target":34963},{"buffer":0,"byteOffset":117204,"byteLength":936,"target":34963},{"buffer":0,"byteOffset":118140,"byteLength":236,"target":34963},{"buffer":0,"byteOffset":118376,"byteLength":236,"target":34963},{"buffer":0,"byteOffset":118612,"byteLength":236,"target":34963},{"buffer":0,"byteOffset":118848,"byteLength":236,"target":34963},{"buffer":0,"byteOffset":119084,"byteLength":876,"target":34963},{"buffer":0,"byteOffset":119960,"byteLength":216,"target":34963}],"buffers":[{"byteLength":120176,"uri":"data:application/octet-stream;base64,"}],"accessors":[{"bufferView":0,"componentType":5126,"count":2349,"max":[22.942228317260742,78.9548568725586,22.67662811279297],"min":[-22.942228317260742,-0.000004230257218296174,-28.687143325805664],"type":"VEC3"},{"bufferView":1,"componentType":5126,"count":2349,"max":[0.9999690055847168,0.9998469948768616,0.9996950030326843],"min":[-0.9999690055847168,-0.9999690055847168,-0.9999690055847168],"type":"VEC3"},{"bufferView":2,"componentType":5126,"count":2349,"max":[1,1,1],"min":[1,1,1],"type":"VEC3"},{"bufferView":3,"componentType":5126,"count":2349,"max":[1.464859962463379,1.5112299919128418],"min":[-0.7317709922790527,-1.3395600318908691],"type":"VEC2"},{"bufferView":4,"componentType":5123,"count":117,"max":[39],"min":[0],"type":"SCALAR"},{"bufferView":5,"componentType":5123,"count":2106,"max":[641],"min":[40],"type":"SCALAR"},{"bufferView":6,"componentType":5123,"count":108,"max":[678],"min":[642],"type":"SCALAR"},{"bufferView":7,"componentType":5123,"count":552,"max":[774],"min":[679],"type":"SCALAR"},{"bufferView":8,"componentType":5123,"count":3921,"max":[1900],"min":[775],"type":"SCALAR"},{"bufferView":9,"componentType":5123,"count":117,"max":[1940],"min":[1901],"type":"SCALAR"},{"bufferView":10,"componentType":5123,"count":468,"max":[2020],"min":[1941],"type":"SCALAR"},{"bufferView":11,"componentType":5123,"count":117,"max":[2060],"min":[2021],"type":"SCALAR"},{"bufferView":12,"componentType":5123,"count":117,"max":[2100],"min":[2061],"type":"SCALAR"},{"bufferView":13,"componentType":5123,"count":117,"max":[2140],"min":[2101],"type":"SCALAR"},{"bufferView":14,"componentType":5123,"count":117,"max":[2180],"min":[2141],"type":"SCALAR"},{"bufferView":15,"componentType":5123,"count":438,"max":[2311],"min":[2181],"type":"SCALAR"},{"bufferView":16,"componentType":5123,"count":108,"max":[2348],"min":[2312],"type":"SCALAR"}],"materials":[{"pbrMetallicRoughness":{"metallicFactor":0,"roughnessFactor":0.9},"name":"default"},{"pbrMetallicRoughness":{"metallicFactor":0,"roughnessFactor":0.9},"name":"white"},{"pbrMetallicRoughness":{"metallicFactor":0,"roughnessFactor":0.9},"name":"default"},{"pbrMetallicRoughness":{"metallicFactor":0,"roughnessFactor":0.9},"name":"Material"},{"pbrMetallicRoughness":{"metallicFactor":0,"roughnessFactor":0.9},"name":"white"},{"pbrMetallicRoughness":{"metallicFactor":0,"roughnessFactor":0.9},"name":"default"},{"pbrMetallicRoughness":{"metallicFactor":0,"roughnessFactor":0.9},"name":"Material"},{"pbrMetallicRoughness":{"metallicFactor":0,"roughnessFactor":0.9},"name":"default"},{"pbrMetallicRoughness":{"metallicFactor":0,"roughnessFactor":0.9},"name":"default"},{"pbrMetallicRoughness":{"metallicFactor":0,"roughnessFactor":0.9},"name":"default"},{"pbrMetallicRoughness":{"metallicFactor":0,"roughnessFactor":0.9},"name":"default"},{"pbrMetallicRoughness":{"metallicFactor":0,"roughnessFactor":0.9},"name":"default"},{"pbrMetallicRoughness":{"metallicFactor":0,"roughnessFactor":0.9},"name":"default"}],"meshes":[{"primitives":[{"mode":4,"attributes":{"POSITION":0,"NORMAL":1,"COLOR_0":2,"TEXCOORD_0":3},"indices":4,"material":0},{"mode":4,"attributes":{"POSITION":0,"NORMAL":1,"COLOR_0":2,"TEXCOORD_0":3},"indices":5,"material":1},{"mode":4,"attributes":{"POSITION":0,"NORMAL":1,"COLOR_0":2,"TEXCOORD_0":3},"indices":6,"material":2},{"mode":4,"attributes":{"POSITION":0,"NORMAL":1,"COLOR_0":2,"TEXCOORD_0":3},"indices":7,"material":3},{"mode":4,"attributes":{"POSITION":0,"NORMAL":1,"COLOR_0":2,"TEXCOORD_0":3},"indices":8,"material":4},{"mode":4,"attributes":{"POSITION":0,"NORMAL":1,"COLOR_0":2,"TEXCOORD_0":3},"indices":9,"material":5},{"mode":4,"attributes":{"POSITION":0,"NORMAL":1,"COLOR_0":2,"TEXCOORD_0":3},"indices":10,"material":6},{"mode":4,"attributes":{"POSITION":0,"NORMAL":1,"COLOR_0":2,"TEXCOORD_0":3},"indices":11,"material":7},{"mode":4,"attributes":{"POSITION":0,"NORMAL":1,"COLOR_0":2,"TEXCOORD_0":3},"indices":12,"material":8},{"mode":4,"attributes":{"POSITION":0,"NORMAL":1,"COLOR_0":2,"TEXCOORD_0":3},"indices":13,"material":9},{"mode":4,"attributes":{"POSITION":0,"NORMAL":1,"COLOR_0":2,"TEXCOORD_0":3},"indices":14,"material":10},{"mode":4,"attributes":{"POSITION":0,"NORMAL":1,"COLOR_0":2,"TEXCOORD_0":3},"indices":15,"material":11},{"mode":4,"attributes":{"POSITION":0,"NORMAL":1,"COLOR_0":2,"TEXCOORD_0":3},"indices":16,"material":12}]}]}