{"asset":{"version":"2.0","generator":"THREE.GLTFExporter"},"scenes":[{"nodes":[0],"name":"AuxScene"}],"scene":0,"nodes":[{"mesh":0}],"bufferViews":[{"buffer":0,"byteOffset":0,"byteLength":5448,"target":34962,"byteStride":12},{"buffer":0,"byteOffset":5448,"byteLength":5448,"target":34962,"byteStride":12},{"buffer":0,"byteOffset":10896,"byteLength":5448,"target":34962,"byteStride":12},{"buffer":0,"byteOffset":16344,"byteLength":3632,"target":34962,"byteStride":8},{"buffer":0,"byteOffset":19976,"byteLength":144,"target":34963},{"buffer":0,"byteOffset":20120,"byteLength":336,"target":34963},{"buffer":0,"byteOffset":20456,"byteLength":816,"target":34963},{"buffer":0,"byteOffset":21272,"byteLength":372,"target":34963},{"buffer":0,"byteOffset":21644,"byteLength":336,"target":34963},{"buffer":0,"byteOffset":21980,"byteLength":372,"target":34963}],"buffers":[{"byteLength":22352,"uri":"data:application/octet-stream;base64,"}],"accessors":[{"bufferView":0,"componentType":5126,"count":454,"max":[25.406494140625,46.07652282714844,26.032377243041992],"min":[-25.406494140625,-0.33957013487815857,-25.386646270751953],"type":"VEC3"},{"bufferView":1,"componentType":5126,"count":454,"max":[0.9045079946517944,0.9998779892921448,0.9998779892921448],"min":[-0.9045079946517944,-0.9998779892921448,-0.9999079704284668],"type":"VEC3"},{"bufferView":2,"componentType":5126,"count":454,"max":[1,1,1],"min":[1,1,1],"type":"VEC3"},{"bufferView":3,"componentType":5126,"count":454,"max":[1.6666699647903442,1.6666699647903442],"min":[-0.8333330154418945,-1.5833300352096558],"type":"VEC2"},{"bufferView":4,"componentType":5123,"count":72,"max":[15],"min":[0],"type":"SCALAR"},{"bufferView":5,"componentType":5123,"count":168,"max":[69],"min":[16],"type":"SCALAR"},{"bufferView":6,"componentType":5123,"count":408,"max":[285],"min":[70],"type":"SCALAR"},{"bufferView":7,"componentType":5123,"count":186,"max":[342],"min":[286],"type":"SCALAR"},{"bufferView":8,"componentType":5123,"count":168,"max":[396],"min":[343],"type":"SCALAR"},{"bufferView":9,"componentType":5123,"count":186,"max":[453],"min":[397],"type":"SCALAR"}],"materials":[{"pbrMetallicRoughness":{"metallicFactor":0,"roughnessFactor":0.9},"name":"Oak"},{"pbrMetallicRoughness":{"metallicFactor":0,"roughnessFactor":0.9},"name":"default"},{"pbrMetallicRoughness":{"metallicFactor":0,"roughnessFactor":0.9},"name":"Material.002"},{"pbrMetallicRoughness":{"metallicFactor":0,"roughnessFactor":0.9},"name":"default"},{"pbrMetallicRoughness":{"metallicFactor":0,"roughnessFactor":0.9},"name":"default"},{"pbrMetallicRoughness":{"metallicFactor":0,"roughnessFactor":0.9},"name":"default"}],"meshes":[{"primitives":[{"mode":4,"attributes":{"POSITION":0,"NORMAL":1,"COLOR_0":2,"TEXCOORD_0":3},"indices":4,"material":0},{"mode":4,"attributes":{"POSITION":0,"NORMAL":1,"COLOR_0":2,"TEXCOORD_0":3},"indices":5,"material":1},{"mode":4,"attributes":{"POSITION":0,"NORMAL":1,"COLOR_0":2,"TEXCOORD_0":3},"indices":6,"material":2},{"mode":4,"attributes":{"POSITION":0,"NORMAL":1,"COLOR_0":2,"TEXCOORD_0":3},"indices":7,"material":3},{"mode":4,"attributes":{"POSITION":0,"NORMAL":1,"COLOR_0":2,"TEXCOORD_0":3},"indices":8,"material":4},{"mode":4,"attributes":{"POSITION":0,"NORMAL":1,"COLOR_0":2,"TEXCOORD_0":3},"indices":9,"material":5}]}]}