{"asset":{"version":"2.0","generator":"THREE.GLTFExporter"},"scenes":[{"nodes":[0],"name":"AuxScene"}],"scene":0,"nodes":[{"mesh":0}],"bufferViews":[{"buffer":0,"byteOffset":0,"byteLength":15720,"target":34962,"byteStride":12},{"buffer":0,"byteOffset":15720,"byteLength":15720,"target":34962,"byteStride":12},{"buffer":0,"byteOffset":31440,"byteLength":15720,"target":34962,"byteStride":12},{"buffer":0,"byteOffset":47160,"byteLength":10480,"target":34962,"byteStride":8},{"buffer":0,"byteOffset":57640,"byteLength":10704,"target":34963}],"buffers":[{"byteLength":68344,"uri":"data:application/octet-stream;base64,"}],"accessors":[{"bufferView":0,"componentType":5126,"count":1310,"max":[35,75,36.5],"min":[-35,-7.402579740301007e-7,-36.5],"type":"VEC3"},{"bufferView":1,"componentType":5126,"count":1310,"max":[1,0.9999690055847168,1],"min":[-1,-1,-1],"type":"VEC3"},{"bufferView":2,"componentType":5126,"count":1310,"max":[1,1,1],"min":[1,1,1],"type":"VEC3"},{"bufferView":3,"componentType":5126,"count":1310,"max":[0.9965130090713501,0.9964630007743835],"min":[0.003487000009045005,0.003536999924108386],"type":"VEC2"},{"bufferView":4,"componentType":5123,"count":5352,"max":[1309],"min":[0],"type":"SCALAR"}],"materials":[{"pbrMetallicRoughness":{"metallicFactor":0,"roughnessFactor":0.9},"name":"bake_mat"}],"meshes":[{"primitives":[{"mode":4,"attributes":{"POSITION":0,"NORMAL":1,"COLOR_0":2,"TEXCOORD_0":3},"indices":4,"material":0}]}]}