{"asset":{"version":"2.0","generator":"THREE.GLTFExporter"},"scenes":[{"nodes":[0],"name":"AuxScene"}],"scene":0,"nodes":[{"mesh":0}],"bufferViews":[{"buffer":0,"byteOffset":0,"byteLength":15720,"target":34962,"byteStride":12},{"buffer":0,"byteOffset":15720,"byteLength":15720,"target":34962,"byteStride":12},{"buffer":0,"byteOffset":31440,"byteLength":15720,"target":34962,"byteStride":12},{"buffer":0,"byteOffset":47160,"byteLength":10480,"target":34962,"byteStride":8},{"buffer":0,"byteOffset":57640,"byteLength":10704,"target":34963}],"buffers":[{"byteLength":68344,"uri":"data:application/octet-stream;base64,"}],"accessors":[{"bufferView":0,"componentType":5126,"count":1310,"max":[35.00740051269531,75.00469970703125,36.535499572753906],"min":[-35.00740051269531,-0.000001460139969822194,-36.535499572753906],"type":"VEC3"},{"bufferView":1,"componentType":5126,"count":1310,"max":[1,0.9999690055847168,1],"min":[-1,-1,-1],"type":"VEC3"},{"bufferView":2,"componentType":5126,"count":1310,"max":[1,1,1],"min":[1,1,1],"type":"VEC3"},{"bufferView":3,"componentType":5126,"count":1310,"max":[0.9965149760246277,0.9964650273323059],"min":[0.003484999993816018,0.0035349999088793993],"type":"VEC2"},{"bufferView":4,"componentType":5123,"count":5352,"max":[1309],"min":[0],"type":"SCALAR"}],"materials":[{"pbrMetallicRoughness":{"metallicFactor":0,"roughnessFactor":0.9},"name":"bake_mat"}],"meshes":[{"primitives":[{"mode":4,"attributes":{"POSITION":0,"NORMAL":1,"COLOR_0":2,"TEXCOORD_0":3},"indices":4,"material":0}]}]}