{"asset":{"version":"2.0","generator":"THREE.GLTFExporter"},"scenes":[{"nodes":[0],"name":"AuxScene"}],"scene":0,"nodes":[{"mesh":0}],"bufferViews":[{"buffer":0,"byteOffset":0,"byteLength":26688,"target":34962,"byteStride":12},{"buffer":0,"byteOffset":26688,"byteLength":26688,"target":34962,"byteStride":12},{"buffer":0,"byteOffset":53376,"byteLength":26688,"target":34962,"byteStride":12},{"buffer":0,"byteOffset":80064,"byteLength":17792,"target":34962,"byteStride":8},{"buffer":0,"byteOffset":97856,"byteLength":17088,"target":34963}],"buffers":[{"byteLength":114944,"uri":"data:application/octet-stream;base64,"}],"accessors":[{"bufferView":0,"componentType":5126,"count":2224,"max":[60,190,28.5],"min":[-60,0.0000012296500244701747,-28.5],"type":"VEC3"},{"bufferView":1,"componentType":5126,"count":2224,"max":[1,1,1],"min":[-1,-1,-1],"type":"VEC3"},{"bufferView":2,"componentType":5126,"count":2224,"max":[1,1,1],"min":[1,1,1],"type":"VEC3"},{"bufferView":3,"componentType":5126,"count":2224,"max":[0.9981510043144226,0.9978780150413513],"min":[0.0018489999929443002,0.002122000092640519],"type":"VEC2"},{"bufferView":4,"componentType":5123,"count":8544,"max":[2223],"min":[0],"type":"SCALAR"}],"materials":[{"pbrMetallicRoughness":{"metallicFactor":0,"roughnessFactor":0.9},"name":"bake_mat"}],"meshes":[{"primitives":[{"mode":4,"attributes":{"POSITION":0,"NORMAL":1,"COLOR_0":2,"TEXCOORD_0":3},"indices":4,"material":0}]}]}