{"asset":{"version":"2.0","generator":"THREE.GLTFExporter"},"scenes":[{"nodes":[0],"name":"AuxScene"}],"scene":0,"nodes":[{"mesh":0}],"bufferViews":[{"buffer":0,"byteOffset":0,"byteLength":13776,"target":34962,"byteStride":12},{"buffer":0,"byteOffset":13776,"byteLength":13776,"target":34962,"byteStride":12},{"buffer":0,"byteOffset":27552,"byteLength":13776,"target":34962,"byteStride":12},{"buffer":0,"byteOffset":41328,"byteLength":9184,"target":34962,"byteStride":8},{"buffer":0,"byteOffset":50512,"byteLength":12,"target":34963},{"buffer":0,"byteOffset":50524,"byteLength":12,"target":34963},{"buffer":0,"byteOffset":50536,"byteLength":648,"target":34963},{"buffer":0,"byteOffset":51184,"byteLength":552,"target":34963},{"buffer":0,"byteOffset":51736,"byteLength":552,"target":34963},{"buffer":0,"byteOffset":52288,"byteLength":552,"target":34963},{"buffer":0,"byteOffset":52840,"byteLength":432,"target":34963},{"buffer":0,"byteOffset":53272,"byteLength":12,"target":34963},{"buffer":0,"byteOffset":53284,"byteLength":12,"target":34963},{"buffer":0,"byteOffset":53296,"byteLength":648,"target":34963},{"buffer":0,"byteOffset":53944,"byteLength":552,"target":34963},{"buffer":0,"byteOffset":54496,"byteLength":552,"target":34963}],"buffers":[{"byteLength":55048,"uri":"data:application/octet-stream;base64,"}],"accessors":[{"bufferView":0,"componentType":5126,"count":1148,"max":[103.17510223388672,48.029659271240234,-3.0168750286102295],"min":[-77.51366424560547,-0.00000214374995266553,-63.559322357177734],"type":"VEC3"},{"bufferView":1,"componentType":5126,"count":1148,"max":[1,1,1],"min":[-1,-1,-1],"type":"VEC3"},{"bufferView":2,"componentType":5126,"count":1148,"max":[1,1,1],"min":[1,1,1],"type":"VEC3"},{"bufferView":3,"componentType":5126,"count":1148,"max":[42.82080078125,12.99209976196289],"min":[-42.82080078125,-0.0011950000189244747],"type":"VEC2"},{"bufferView":4,"componentType":5123,"count":6,"max":[4],"min":[0],"type":"SCALAR"},{"bufferView":5,"componentType":5123,"count":6,"max":[9],"min":[5],"type":"SCALAR"},{"bufferView":6,"componentType":5123,"count":324,"max":[177],"min":[10],"type":"SCALAR"},{"bufferView":7,"componentType":5123,"count":276,"max":[321],"min":[178],"type":"SCALAR"},{"bufferView":8,"componentType":5123,"count":276,"max":[465],"min":[322],"type":"SCALAR"},{"bufferView":9,"componentType":5123,"count":276,"max":[609],"min":[466],"type":"SCALAR"},{"bufferView":10,"componentType":5123,"count":216,"max":[681],"min":[610],"type":"SCALAR"},{"bufferView":11,"componentType":5123,"count":6,"max":[686],"min":[682],"type":"SCALAR"},{"bufferView":12,"componentType":5123,"count":6,"max":[691],"min":[687],"type":"SCALAR"},{"bufferView":13,"componentType":5123,"count":324,"max":[859],"min":[692],"type":"SCALAR"},{"bufferView":14,"componentType":5123,"count":276,"max":[1003],"min":[860],"type":"SCALAR"},{"bufferView":15,"componentType":5123,"count":276,"max":[1147],"min":[1004],"type":"SCALAR"}],"materials":[{"pbrMetallicRoughness":{"metallicFactor":0,"roughnessFactor":0.9},"name":"Foregrou"},{"pbrMetallicRoughness":{"metallicFactor":0,"roughnessFactor":0.9},"name":"Foregrou"},{"pbrMetallicRoughness":{"metallicFactor":0,"roughnessFactor":0.9},"name":"grey brown"},{"pbrMetallicRoughness":{"metallicFactor":0,"roughnessFactor":0.9},"name":"grey brown"},{"pbrMetallicRoughness":{"metallicFactor":0,"roughnessFactor":0.9},"name":"grey brown"},{"pbrMetallicRoughness":{"metallicFactor":0,"roughnessFactor":0.9},"name":"grey brown"},{"pbrMetallicRoughness":{"metallicFactor":0,"roughnessFactor":0.9},"name":"grey brown"},{"pbrMetallicRoughness":{"metallicFactor":0,"roughnessFactor":0.9},"name":"Foregrou"},{"pbrMetallicRoughness":{"metallicFactor":0,"roughnessFactor":0.9},"name":"Foregrou"},{"pbrMetallicRoughness":{"metallicFactor":0,"roughnessFactor":0.9},"name":"grey brown"},{"pbrMetallicRoughness":{"metallicFactor":0,"roughnessFactor":0.9},"name":"grey brown"},{"pbrMetallicRoughness":{"metallicFactor":0,"roughnessFactor":0.9},"name":"grey brown"}],"meshes":[{"primitives":[{"mode":4,"attributes":{"POSITION":0,"NORMAL":1,"COLOR_0":2,"TEXCOORD_0":3},"indices":4,"material":0},{"mode":4,"attributes":{"POSITION":0,"NORMAL":1,"COLOR_0":2,"TEXCOORD_0":3},"indices":5,"material":1},{"mode":4,"attributes":{"POSITION":0,"NORMAL":1,"COLOR_0":2,"TEXCOORD_0":3},"indices":6,"material":2},{"mode":4,"attributes":{"POSITION":0,"NORMAL":1,"COLOR_0":2,"TEXCOORD_0":3},"indices":7,"material":3},{"mode":4,"attributes":{"POSITION":0,"NORMAL":1,"COLOR_0":2,"TEXCOORD_0":3},"indices":8,"material":4},{"mode":4,"attributes":{"POSITION":0,"NORMAL":1,"COLOR_0":2,"TEXCOORD_0":3},"indices":9,"material":5},{"mode":4,"attributes":{"POSITION":0,"NORMAL":1,"COLOR_0":2,"TEXCOORD_0":3},"indices":10,"material":6},{"mode":4,"attributes":{"POSITION":0,"NORMAL":1,"COLOR_0":2,"TEXCOORD_0":3},"indices":11,"material":7},{"mode":4,"attributes":{"POSITION":0,"NORMAL":1,"COLOR_0":2,"TEXCOORD_0":3},"indices":12,"material":8},{"mode":4,"attributes":{"POSITION":0,"NORMAL":1,"COLOR_0":2,"TEXCOORD_0":3},"indices":13,"material":9},{"mode":4,"attributes":{"POSITION":0,"NORMAL":1,"COLOR_0":2,"TEXCOORD_0":3},"indices":14,"material":10},{"mode":4,"attributes":{"POSITION":0,"NORMAL":1,"COLOR_0":2,"TEXCOORD_0":3},"indices":15,"material":11}]}]}