{"asset":{"version":"2.0","generator":"THREE.GLTFExporter"},"scenes":[{"nodes":[0],"name":"AuxScene"}],"scene":0,"nodes":[{"mesh":0}],"bufferViews":[{"buffer":0,"byteOffset":0,"byteLength":476640,"target":34962,"byteStride":12},{"buffer":0,"byteOffset":476640,"byteLength":476640,"target":34962,"byteStride":12},{"buffer":0,"byteOffset":953280,"byteLength":476640,"target":34962,"byteStride":12},{"buffer":0,"byteOffset":1429920,"byteLength":317760,"target":34962,"byteStride":8},{"buffer":0,"byteOffset":1747680,"byteLength":55092,"target":34963},{"buffer":0,"byteOffset":1802772,"byteLength":33420,"target":34963},{"buffer":0,"byteOffset":1836192,"byteLength":1680,"target":34963}],"buffers":[{"byteLength":1837872,"uri":"data:application/octet-stream;base64,"}],"accessors":[{"bufferView":0,"componentType":5126,"count":39720,"max":[68.93080139160156,50,100.8280029296875],"min":[-71.06919860839844,-50,-99.17179870605469],"type":"VEC3"},{"bufferView":1,"componentType":5126,"count":39720,"max":[1,0.9999690055847168,1],"min":[-1,-1,-1],"type":"VEC3"},{"bufferView":2,"componentType":5126,"count":39720,"max":[1,1,1],"min":[1,1,1],"type":"VEC3"},{"bufferView":3,"componentType":5126,"count":39720,"max":[77.57360076904297,91.13469696044922],"min":[-75.7582015991211,-86.802001953125],"type":"VEC2"},{"bufferView":4,"componentType":5123,"count":27546,"max":[25773],"min":[0],"type":"SCALAR"},{"bufferView":5,"componentType":5123,"count":16710,"max":[39313],"min":[25774],"type":"SCALAR"},{"bufferView":6,"componentType":5123,"count":840,"max":[39719],"min":[39314],"type":"SCALAR"}],"materials":[{"pbrMetallicRoughness":{"metallicFactor":0,"roughnessFactor":0.9},"name":"_2"},{"pbrMetallicRoughness":{"metallicFactor":0,"roughnessFactor":0.9},"name":"_34"},{"pbrMetallicRoughness":{"metallicFactor":0,"roughnessFactor":0.9},"name":"white_wood"}],"meshes":[{"primitives":[{"mode":4,"attributes":{"POSITION":0,"NORMAL":1,"COLOR_0":2,"TEXCOORD_0":3},"indices":4,"material":0},{"mode":4,"attributes":{"POSITION":0,"NORMAL":1,"COLOR_0":2,"TEXCOORD_0":3},"indices":5,"material":1},{"mode":4,"attributes":{"POSITION":0,"NORMAL":1,"COLOR_0":2,"TEXCOORD_0":3},"indices":6,"material":2}]}]}