{"asset":{"version":"2.0","generator":"THREE.GLTFExporter"},"scenes":[{"nodes":[0],"name":"AuxScene"}],"scene":0,"nodes":[{"mesh":0}],"bufferViews":[{"buffer":0,"byteOffset":0,"byteLength":96,"target":34962,"byteStride":12},{"buffer":0,"byteOffset":96,"byteLength":96,"target":34962,"byteStride":12},{"buffer":0,"byteOffset":192,"byteLength":96,"target":34962,"byteStride":12},{"buffer":0,"byteOffset":288,"byteLength":64,"target":34962,"byteStride":8},{"buffer":0,"byteOffset":352,"byteLength":72,"target":34963}],"buffers":[{"byteLength":424,"uri":"data:application/octet-stream;base64,"}],"accessors":[{"bufferView":0,"componentType":5126,"count":8,"max":[35.5600700378418,55.35090255737305,-1.1784530878067017],"min":[-35.5600700378418,-41.16941833496094,-3.6859538555145264],"type":"VEC3"},{"bufferView":1,"componentType":5126,"count":8,"max":[0.5773490071296692,0.5773490071296692,0.5773490071296692],"min":[-0.5773490071296692,-0.5773490071296692,-0.5773490071296692],"type":"VEC3"},{"bufferView":2,"componentType":5126,"count":8,"max":[1,1,1],"min":[1,1,1],"type":"VEC3"},{"bufferView":3,"componentType":5126,"count":8,"max":[0.9955660104751587,0.9959229826927185],"min":[0.004433999769389629,0.004077000077813864],"type":"VEC2"},{"bufferView":4,"componentType":5123,"count":36,"max":[7],"min":[0],"type":"SCALAR"}],"materials":[{"pbrMetallicRoughness":{"metallicFactor":0,"roughnessFactor":0.9},"name":"nyc2"}],"meshes":[{"primitives":[{"mode":4,"attributes":{"POSITION":0,"NORMAL":1,"COLOR_0":2,"TEXCOORD_0":3},"indices":4,"material":0}]}]}