{"asset":{"version":"2.0","generator":"THREE.GLTFExporter"},"scenes":[{"nodes":[0],"name":"AuxScene"}],"scene":0,"nodes":[{"mesh":0}],"bufferViews":[{"buffer":0,"byteOffset":0,"byteLength":16920,"target":34962,"byteStride":12},{"buffer":0,"byteOffset":16920,"byteLength":16920,"target":34962,"byteStride":12},{"buffer":0,"byteOffset":33840,"byteLength":16920,"target":34962,"byteStride":12},{"buffer":0,"byteOffset":50760,"byteLength":11280,"target":34962,"byteStride":8},{"buffer":0,"byteOffset":62040,"byteLength":4584,"target":34963}],"buffers":[{"byteLength":66624,"uri":"data:application/octet-stream;base64,"}],"accessors":[{"bufferView":0,"componentType":5126,"count":1410,"max":[48.54999923706055,221.5800018310547,3.8122200965881348],"min":[-48.54999923706055,-5.955420192549354e-7,-3.8122398853302],"type":"VEC3"},{"bufferView":1,"componentType":5126,"count":1410,"max":[1,1,1],"min":[-1,-0.9695730209350586,-1],"type":"VEC3"},{"bufferView":2,"componentType":5126,"count":1410,"max":[1,1,1],"min":[1,1,1],"type":"VEC3"},{"bufferView":3,"componentType":5126,"count":1410,"max":[1,1],"min":[0,0],"type":"VEC2"},{"bufferView":4,"componentType":5123,"count":2292,"max":[1409],"min":[0],"type":"SCALAR"}],"materials":[{"pbrMetallicRoughness":{"metallicFactor":0,"roughnessFactor":0.9},"name":"Material"}],"meshes":[{"primitives":[{"mode":4,"attributes":{"POSITION":0,"NORMAL":1,"COLOR_0":2,"TEXCOORD_0":3},"indices":4,"material":0}]}]}