{"asset":{"version":"2.0","generator":"THREE.GLTFExporter"},"scenes":[{"nodes":[0],"name":"AuxScene"}],"scene":0,"nodes":[{"mesh":0}],"bufferViews":[{"buffer":0,"byteOffset":0,"byteLength":47040,"target":34962,"byteStride":12},{"buffer":0,"byteOffset":47040,"byteLength":47040,"target":34962,"byteStride":12},{"buffer":0,"byteOffset":94080,"byteLength":47040,"target":34962,"byteStride":12},{"buffer":0,"byteOffset":141120,"byteLength":31360,"target":34962,"byteStride":8},{"buffer":0,"byteOffset":172480,"byteLength":32976,"target":34963}],"buffers":[{"byteLength":205456,"uri":"data:application/octet-stream;base64,"}],"accessors":[{"bufferView":0,"componentType":5126,"count":3920,"max":[22.19890022277832,144.3280029296875,28.875600814819336],"min":[-22.19890022277832,0.000004113110207981663,-28.875600814819336],"type":"VEC3"},{"bufferView":1,"componentType":5126,"count":3920,"max":[0.9999690055847168,1,0.9999690055847168],"min":[-0.9999690055847168,-1,-0.9999690055847168],"type":"VEC3"},{"bufferView":2,"componentType":5126,"count":3920,"max":[1,1,1],"min":[1,1,1],"type":"VEC3"},{"bufferView":3,"componentType":5126,"count":3920,"max":[0.9946630001068115,0.9951819777488708],"min":[0.0053369998931884766,0.00481799989938736],"type":"VEC2"},{"bufferView":4,"componentType":5123,"count":16488,"max":[3919],"min":[0],"type":"SCALAR"}],"materials":[{"pbrMetallicRoughness":{"metallicFactor":0,"roughnessFactor":0.9},"name":"bake_mat"}],"meshes":[{"primitives":[{"mode":4,"attributes":{"POSITION":0,"NORMAL":1,"COLOR_0":2,"TEXCOORD_0":3},"indices":4,"material":0}]}]}