{"asset":{"version":"2.0","generator":"THREE.GLTFExporter"},"scenes":[{"nodes":[0],"name":"AuxScene"}],"scene":0,"nodes":[{"mesh":0}],"bufferViews":[{"buffer":0,"byteOffset":0,"byteLength":66768,"target":34962,"byteStride":12},{"buffer":0,"byteOffset":66768,"byteLength":66768,"target":34962,"byteStride":12},{"buffer":0,"byteOffset":133536,"byteLength":66768,"target":34962,"byteStride":12},{"buffer":0,"byteOffset":200304,"byteLength":44512,"target":34962,"byteStride":8},{"buffer":0,"byteOffset":244816,"byteLength":49296,"target":34963}],"buffers":[{"byteLength":294112,"uri":"data:application/octet-stream;base64,"}],"accessors":[{"bufferView":0,"componentType":5126,"count":5564,"max":[118.2959976196289,90.74909973144531,76.59110260009766],"min":[-118.2959976196289,8.465160021842166e-7,-76.59110260009766],"type":"VEC3"},{"bufferView":1,"componentType":5126,"count":5564,"max":[1,1,1],"min":[-1,-1,-1],"type":"VEC3"},{"bufferView":2,"componentType":5126,"count":5564,"max":[1,1,1],"min":[1,1,1],"type":"VEC3"},{"bufferView":3,"componentType":5126,"count":5564,"max":[0.9982249736785889,0.9982179999351501],"min":[0.0017750000115484,0.0017819999484345317],"type":"VEC2"},{"bufferView":4,"componentType":5123,"count":24648,"max":[5563],"min":[0],"type":"SCALAR"}],"materials":[{"pbrMetallicRoughness":{"metallicFactor":0,"roughnessFactor":0.9},"name":"bake_mat"}],"meshes":[{"primitives":[{"mode":4,"attributes":{"POSITION":0,"NORMAL":1,"COLOR_0":2,"TEXCOORD_0":3},"indices":4,"material":0}]}]}