{"asset":{"version":"2.0","generator":"THREE.GLTFExporter"},"scenes":[{"nodes":[0],"name":"AuxScene"}],"scene":0,"nodes":[{"mesh":0}],"bufferViews":[{"buffer":0,"byteOffset":0,"byteLength":35904,"target":34962,"byteStride":12},{"buffer":0,"byteOffset":35904,"byteLength":35904,"target":34962,"byteStride":12},{"buffer":0,"byteOffset":71808,"byteLength":35904,"target":34962,"byteStride":12},{"buffer":0,"byteOffset":107712,"byteLength":23936,"target":34962,"byteStride":8},{"buffer":0,"byteOffset":131648,"byteLength":18936,"target":34963}],"buffers":[{"byteLength":150584,"uri":"data:application/octet-stream;base64,"}],"accessors":[{"bufferView":0,"componentType":5126,"count":2992,"max":[76.19999694824219,71.2239990234375,25.839799880981445],"min":[-76.19999694824219,0.000004707670086645521,-25.839799880981445],"type":"VEC3"},{"bufferView":1,"componentType":5126,"count":2992,"max":[1,0.9664300084114075,0.9821469783782959],"min":[-1,-0.9686570167541504,-0.9821469783782959],"type":"VEC3"},{"bufferView":2,"componentType":5126,"count":2992,"max":[1,1,1],"min":[1,1,1],"type":"VEC3"},{"bufferView":3,"componentType":5126,"count":2992,"max":[0.9973599910736084,0.9973670244216919],"min":[0.0026400000788271427,0.002633000025525689],"type":"VEC2"},{"bufferView":4,"componentType":5123,"count":9468,"max":[2991],"min":[0],"type":"SCALAR"}],"materials":[{"pbrMetallicRoughness":{"metallicFactor":0,"roughnessFactor":0.9},"name":"bake_mat"}],"meshes":[{"primitives":[{"mode":4,"attributes":{"POSITION":0,"NORMAL":1,"COLOR_0":2,"TEXCOORD_0":3},"indices":4,"material":0}]}]}