{"asset":{"version":"2.0","generator":"THREE.GLTFExporter"},"scenes":[{"nodes":[0],"name":"AuxScene"}],"scene":0,"nodes":[{"mesh":0}],"bufferViews":[{"buffer":0,"byteOffset":0,"byteLength":16164,"target":34962,"byteStride":12},{"buffer":0,"byteOffset":16164,"byteLength":16164,"target":34962,"byteStride":12},{"buffer":0,"byteOffset":32328,"byteLength":16164,"target":34962,"byteStride":12},{"buffer":0,"byteOffset":48492,"byteLength":10776,"target":34962,"byteStride":8},{"buffer":0,"byteOffset":59268,"byteLength":384,"target":34963},{"buffer":0,"byteOffset":59652,"byteLength":408,"target":34963},{"buffer":0,"byteOffset":60060,"byteLength":624,"target":34963},{"buffer":0,"byteOffset":60684,"byteLength":24,"target":34963},{"buffer":0,"byteOffset":60708,"byteLength":680,"target":34963},{"buffer":0,"byteOffset":61388,"byteLength":12,"target":34963},{"buffer":0,"byteOffset":61400,"byteLength":188,"target":34963},{"buffer":0,"byteOffset":61588,"byteLength":12,"target":34963},{"buffer":0,"byteOffset":61600,"byteLength":12,"target":34963},{"buffer":0,"byteOffset":61612,"byteLength":2328,"target":34963},{"buffer":0,"byteOffset":63940,"byteLength":516,"target":34963},{"buffer":0,"byteOffset":64456,"byteLength":12,"target":34963},{"buffer":0,"byteOffset":64468,"byteLength":108,"target":34963},{"buffer":0,"byteOffset":64576,"byteLength":12,"target":34963},{"buffer":0,"byteOffset":64588,"byteLength":720,"target":34963}],"buffers":[{"byteLength":65308,"uri":"data:application/octet-stream;base64,"}],"accessors":[{"bufferView":0,"componentType":5126,"count":1347,"max":[123.07691955566406,170.0246124267578,-33.88589859008789],"min":[-6.693000320634468e-11,-0.4483410120010376,-48.63563919067383],"type":"VEC3"},{"bufferView":1,"componentType":5126,"count":1347,"max":[1,1,1],"min":[-1,-1,-1],"type":"VEC3"},{"bufferView":2,"componentType":5126,"count":1347,"max":[1,1,1],"min":[1,1,1],"type":"VEC3"},{"bufferView":3,"componentType":5126,"count":1347,"max":[42.70790100097656,64.99400329589844],"min":[-42.70790100097656,-42.70790100097656],"type":"VEC2"},{"bufferView":4,"componentType":5123,"count":192,"max":[101],"min":[0],"type":"SCALAR"},{"bufferView":5,"componentType":5123,"count":204,"max":[182],"min":[102],"type":"SCALAR"},{"bufferView":6,"componentType":5123,"count":312,"max":[344],"min":[183],"type":"SCALAR"},{"bufferView":7,"componentType":5123,"count":12,"max":[350],"min":[345],"type":"SCALAR"},{"bufferView":8,"componentType":5123,"count":339,"max":[482],"min":[199],"type":"SCALAR"},{"bufferView":9,"componentType":5123,"count":6,"max":[486],"min":[483],"type":"SCALAR"},{"bufferView":10,"componentType":5123,"count":93,"max":[496],"min":[186],"type":"SCALAR"},{"bufferView":11,"componentType":5123,"count":6,"max":[501],"min":[497],"type":"SCALAR"},{"bufferView":12,"componentType":5123,"count":6,"max":[504],"min":[502],"type":"SCALAR"},{"bufferView":13,"componentType":5123,"count":1164,"max":[1061],"min":[505],"type":"SCALAR"},{"bufferView":14,"componentType":5123,"count":258,"max":[1200],"min":[1062],"type":"SCALAR"},{"bufferView":15,"componentType":5123,"count":6,"max":[1204],"min":[1201],"type":"SCALAR"},{"bufferView":16,"componentType":5123,"count":54,"max":[1232],"min":[1184],"type":"SCALAR"},{"bufferView":17,"componentType":5123,"count":6,"max":[1236],"min":[1233],"type":"SCALAR"},{"bufferView":18,"componentType":5123,"count":360,"max":[1346],"min":[1075],"type":"SCALAR"}],"materials":[{"pbrMetallicRoughness":{"metallicFactor":0,"roughnessFactor":0.9},"name":"FF012"},{"pbrMetallicRoughness":{"metallicFactor":0,"roughnessFactor":0.9},"name":"FF012"},{"pbrMetallicRoughness":{"metallicFactor":0,"roughnessFactor":0.9},"name":"FF081"},{"pbrMetallicRoughness":{"metallicFactor":0,"roughnessFactor":0.9},"alphaMode":"BLEND","name":"FF098"},{"pbrMetallicRoughness":{"metallicFactor":0,"roughnessFactor":0.9},"name":"Foregrou"},{"pbrMetallicRoughness":{"metallicFactor":0,"roughnessFactor":0.9},"name":"Foregrou"},{"pbrMetallicRoughness":{"metallicFactor":0,"roughnessFactor":0.9},"name":"FF081"},{"pbrMetallicRoughness":{"metallicFactor":0,"roughnessFactor":0.9},"name":"FF081"},{"pbrMetallicRoughness":{"metallicFactor":0,"roughnessFactor":0.9},"alphaMode":"BLEND","name":"FF098"}],"meshes":[{"primitives":[{"mode":4,"attributes":{"POSITION":0,"NORMAL":1,"COLOR_0":2,"TEXCOORD_0":3},"indices":4,"material":0},{"mode":4,"attributes":{"POSITION":0,"NORMAL":1,"COLOR_0":2,"TEXCOORD_0":3},"indices":5,"material":1},{"mode":4,"attributes":{"POSITION":0,"NORMAL":1,"COLOR_0":2,"TEXCOORD_0":3},"indices":6,"material":2},{"mode":4,"attributes":{"POSITION":0,"NORMAL":1,"COLOR_0":2,"TEXCOORD_0":3},"indices":7,"material":3},{"mode":4,"attributes":{"POSITION":0,"NORMAL":1,"COLOR_0":2,"TEXCOORD_0":3},"indices":8,"material":2},{"mode":4,"attributes":{"POSITION":0,"NORMAL":1,"COLOR_0":2,"TEXCOORD_0":3},"indices":9,"material":3},{"mode":4,"attributes":{"POSITION":0,"NORMAL":1,"COLOR_0":2,"TEXCOORD_0":3},"indices":10,"material":2},{"mode":4,"attributes":{"POSITION":0,"NORMAL":1,"COLOR_0":2,"TEXCOORD_0":3},"indices":11,"material":4},{"mode":4,"attributes":{"POSITION":0,"NORMAL":1,"COLOR_0":2,"TEXCOORD_0":3},"indices":12,"material":5},{"mode":4,"attributes":{"POSITION":0,"NORMAL":1,"COLOR_0":2,"TEXCOORD_0":3},"indices":13,"material":6},{"mode":4,"attributes":{"POSITION":0,"NORMAL":1,"COLOR_0":2,"TEXCOORD_0":3},"indices":14,"material":7},{"mode":4,"attributes":{"POSITION":0,"NORMAL":1,"COLOR_0":2,"TEXCOORD_0":3},"indices":15,"material":8},{"mode":4,"attributes":{"POSITION":0,"NORMAL":1,"COLOR_0":2,"TEXCOORD_0":3},"indices":16,"material":7},{"mode":4,"attributes":{"POSITION":0,"NORMAL":1,"COLOR_0":2,"TEXCOORD_0":3},"indices":17,"material":8},{"mode":4,"attributes":{"POSITION":0,"NORMAL":1,"COLOR_0":2,"TEXCOORD_0":3},"indices":18,"material":7}]}]}